<svg width="24" height="24" viewBox="0 0 24 24" fill="none" xmlns="http://www.w3.org/2000/svg">
<path d="M12 22C17.5228 22 22 17.5228 22 12C22 6.47715 17.5228 2 12 2C6.47715 2 2 6.47715 2 12C2 17.5228 6.47715 22 12 22Z" stroke="#36BABB" stroke-width="3"/>
<path d="M16.7676 9.20753C16.4581 8.93073 15.9558 8.93091 15.646 9.20753L10.5978 13.7176L8.35418 11.7132C8.04438 11.4364 7.54216 11.4364 7.23235 11.7132C6.92255 11.99 6.92255 12.4386 7.23235 12.7154L10.0369 15.2209C10.1916 15.3592 10.3946 15.4286 10.5976 15.4286C10.8006 15.4286 11.0038 15.3594 11.1587 15.2209L16.7676 10.2097C17.0775 9.93314 17.0775 9.48428 16.7676 9.20753Z" fill="#36BABB"/>
</svg>
