<?xml version="1.0" encoding="utf-8"?>
<!-- Generator: Adobe Illustrator 16.0.0, SVG Export Plug-In . SVG Version: 6.00 Build 0)  -->
<!DOCTYPE svg PUBLIC "-//W3C//DTD SVG 1.1//EN" "http://www.w3.org/Graphics/SVG/1.1/DTD/svg11.dtd">
<svg version="1.1" id="Layer_1" xmlns="http://www.w3.org/2000/svg" xmlns:xlink="http://www.w3.org/1999/xlink" x="0px" y="0px"
	 width="20px" height="20px" viewBox="0 0 20 20" enable-background="new 0 0 20 20" xml:space="preserve">
<g>
	<path fill="none" stroke="#37BABB" stroke-width="3" d="M10,19.011c4.971,0,9-3.984,9-8.902c0-4.916-4.029-8.901-9-8.901
		s-9,3.985-9,8.901C1,15.026,5.029,19.011,10,19.011z"/>
	<path fill="#37BABB" d="M14.291,7.624c-0.279-0.246-0.731-0.246-1.009,0l-4.544,4.014L6.719,9.854c-0.279-0.247-0.731-0.247-1.01,0
		s-0.279,0.646,0,0.892l2.524,2.23c0.139,0.124,0.322,0.187,0.504,0.187c0.183,0,0.366-0.063,0.505-0.187l5.048-4.46
		C14.57,8.27,14.57,7.87,14.291,7.624z"/>
</g>
</svg>
