<?xml version="1.0" encoding="utf-8"?>
<!-- Generator: Adobe Illustrator 16.0.0, SVG Export Plug-In . SVG Version: 6.00 Build 0)  -->
<!DOCTYPE svg PUBLIC "-//W3C//DTD SVG 1.1//EN" "http://www.w3.org/Graphics/SVG/1.1/DTD/svg11.dtd">
<svg version="1.1" id="Layer_1" xmlns="http://www.w3.org/2000/svg" xmlns:xlink="http://www.w3.org/1999/xlink" x="0px" y="0px"
	 width="22px" height="22px" viewBox="0 0 22 22" enable-background="new 0 0 22 22" xml:space="preserve">
<g>
	<path fill="none" stroke="#37BABB" stroke-width="3" d="M11,20c4.971,0,9-4.029,9-9c0-4.972-4.029-9-9-9c-4.972,0-9,4.028-9,9
		C2,15.971,6.028,20,11,20z"/>
	<path fill="#37BABB" d="M15.291,8.486c-0.278-0.252-0.729-0.252-1.01,0l-4.544,4.059l-2.021-1.806
		c-0.276-0.246-0.729-0.246-1.007,0c-0.279,0.252-0.279,0.655,0,0.904l2.524,2.255c0.139,0.125,0.322,0.184,0.504,0.184
		c0.184,0,0.366-0.059,0.505-0.184l5.048-4.513C15.57,9.14,15.57,8.735,15.291,8.486z"/>
</g>
</svg>
