<svg width="23" height="26" viewBox="0 0 23 26" fill="none" xmlns="http://www.w3.org/2000/svg">
<path d="M0 7.31251V18.6875C-1.66759e-06 18.9728 0.0750828 19.253 0.217706 19.5C0.36033 19.747 0.565467 19.9522 0.8125 20.0948L10.6636 25.7823C10.9106 25.9249 11.1908 26 11.4761 26C11.7613 26 12.0415 25.9249 12.2886 25.7823L22.1396 20.0948C22.3866 19.9522 22.5918 19.747 22.7344 19.5C22.877 19.253 22.9521 18.9728 22.9521 18.6875V7.31251C22.9521 7.02726 22.877 6.74704 22.7344 6.5C22.5918 6.25297 22.3866 6.04783 22.1396 5.90521L12.2886 0.217709C12.0415 0.0750852 11.7613 0 11.4761 0C11.1908 0 10.9106 0.0750852 10.6636 0.217709L0.8125 5.90521C0.565467 6.04783 0.36033 6.25297 0.217706 6.5C0.0750828 6.74704 -1.66759e-06 7.02726 0 7.31251ZM3.25 8.25069L11.4761 3.50138L19.7021 8.25069V17.7493L11.4761 22.4986L3.25 17.7493V8.25069Z" fill="#00ABAB"/>
</svg>
