<svg width="26" height="26" viewBox="0 0 26 26" fill="none" xmlns="http://www.w3.org/2000/svg">
<g clip-path="url(#clip0_9_27)">
<path d="M1.52393 7.31251V18.6875C1.52392 18.9728 1.59901 19.253 1.74163 19.5C1.88426 19.747 2.08939 19.9522 2.33643 20.0948L12.1875 25.7823C12.4345 25.9249 12.7147 26 13 26C13.2852 26 13.5654 25.9249 13.8125 25.7823L23.6635 20.0948C23.9106 19.9522 24.1157 19.747 24.2583 19.5C24.4009 19.253 24.476 18.9728 24.476 18.6875V7.31251C24.476 7.02726 24.4009 6.74704 24.2583 6.5C24.1157 6.25297 23.9106 6.04783 23.6635 5.90521L13.8125 0.217709C13.5654 0.0750852 13.2852 0 13 0C12.7147 0 12.4345 0.0750852 12.1875 0.217709L2.33643 5.90521C2.08939 6.04783 1.88426 6.25297 1.74163 6.5C1.59901 6.74704 1.52392 7.02726 1.52393 7.31251V7.31251ZM4.77393 8.25069L13 3.50138L21.226 8.25069V17.7493L13 22.4986L4.77393 17.7493V8.25069Z" fill="#878787"/>
</g>
<defs>
<clipPath id="clip0_9_27">
<rect width="26" height="26" fill="white"/>
</clipPath>
</defs>
</svg>
